<?xml version="1.0" encoding="iso-8859-1"?>
<!-- Generator: Adobe Illustrator 27.0.0, SVG Export Plug-In . SVG Version: 6.00 Build 0)  -->
<svg version="1.1" id="Capa_1" xmlns="http://www.w3.org/2000/svg" xmlns:xlink="http://www.w3.org/1999/xlink" x="0px" y="0px"
	 viewBox="0 0 286.14 413.25" style="enable-background:new 0 0 286.14 413.25;" xml:space="preserve">
<style type="text/css">
	.st0{fill:#88CFEB;}
	.st1{fill:#FFFFFF;}
	.st2{fill:#6E3470;}
	.st3{fill:#3A8E04;}
	.st4{fill:#FAFAFA;}
	.st5{fill:#52AF22;}
	.st6{fill:#60D52C;}
	.st7{fill:#8CF94B;}
	.st8{fill:#AF1716;}
	.st9{fill:#F3D5D5;}
	.st10{fill:#941818;}
	.st11{fill:#AD1716;}
	.st12{fill:#C62F30;}
	.st13{fill:#731917;}
	.st14{fill:#B71716;}
	.st15{fill:#BF1718;}
	.st16{fill:#BA1717;}
	.st17{fill:#C93A3B;}
	.st18{fill:#7F1817;}
	.st19{fill:#F8E8E8;}
	.st20{fill:#BF1717;}
	.st21{fill:#C01718;}
	.st22{fill:#68B12D;}
	.st23{fill:#62A52C;}
	.st24{fill:#786F6C;}
	.st25{fill:#776E6B;}
	.st26{fill:#807875;}
	.st27{fill:#FAD112;}
	.st28{fill:#F7CB00;}
	.st29{fill:#F7C207;}
	.st30{fill:#F6BB0B;}
	.st31{fill:#F9CA01;}
	.st32{fill:#F9CB01;}
	.st33{fill:#C1C102;}
	.st34{fill:#F6FC75;}
	.st35{fill:#FACE00;}
	.st36{fill:#DBEC44;}
	.st37{fill:#D0D832;}
	.st38{fill:#599628;}
	.st39{fill:#6AB230;}
	.st40{fill:#67AF2D;}
	.st41{fill:#A1CE7C;}
	.st42{fill:#FEFEFE;}
	.st43{fill:#5A9829;}
	.st44{fill:#5D9E2A;}
	.st45{fill:#F4F4F4;}
	.st46{fill:#E2E2E2;}
	.st47{fill:#E5E5E5;}
	.st48{fill:#FCFCFC;}
	.st49{fill:#797978;}
	.st50{fill:#7E7E7D;}
	.st51{fill:#BFBFBE;}
	.st52{fill:#9B9B9A;}
	.st53{fill:#AFA4A1;}
	.st54{fill:#F0B60C;}
	.st55{fill:#F4B513;}
	.st56{fill:#985F1B;}
	.st57{fill:#B1A5A2;}
	.st58{fill:#AB9F9C;}
	.st59{fill:#D47F18;}
	.st60{fill:#FFDE8D;}
	.st61{fill:#F3AD15;}
	.st62{fill:#B2A6A3;}
	.st63{fill:#EFB60C;}
	.st64{fill:#F6BB0C;}
	.st65{fill:#CCC602;}
	.st66{fill:#ED8D1C;}
	.st67{fill:#DD9B16;}
	.st68{fill:#F2AE11;}
	.st69{fill:#F1AD11;}
	.st70{fill:#DD9B17;}
	.st71{fill:#F9B411;}
	.st72{fill:#F8B310;}
	.st73{fill:#EBA713;}
	.st74{fill:#EDAA12;}
	.st75{fill:#F4AF11;}
	.st76{fill:#EBA813;}
	.st77{fill:#F9B921;}
	.st78{fill:#6A9049;}
	.st79{fill:#A5E76C;}
	.st80{fill:#A6E86D;}
	.st81{fill:#96D163;}
	.st82{fill:#69B22E;}
	.st83{fill:#65AB2C;}
	.st84{fill:#D13E3B;}
	.st85{fill:#A71716;}
	.st86{fill:#CC3D3A;}
	.st87{fill:#781817;}
	.st88{fill:#8F1816;}
	.st89{fill:#9D1716;}
	.st90{fill:#E95766;}
	.st91{fill:#F45B6A;}
	.st92{fill:#AA1716;}
	.st93{fill:#AE1716;}
	.st94{fill:#BA2422;}
	.st95{fill:#BE3A37;}
	.st96{fill:#F9B410;}
	.st97{fill:#7F567F;}
</style>
<polygon class="st1" points="181.87,200.46 171.03,200.46 160.18,200.46 149.34,200.46 149.34,216.34 149.34,232.23 138.5,232.23 
	138.5,216.34 138.5,200.46 127.65,200.46 116.81,200.46 105.97,200.46 105.97,216.34 95.12,216.34 95.12,232.23 84.28,232.23 
	73.43,232.23 73.43,248.11 84.28,248.11 95.12,248.11 105.97,248.11 116.81,248.11 116.81,263.99 127.65,263.99 138.5,263.99 
	149.34,263.99 160.18,263.99 171.03,263.99 181.87,263.99 192.72,263.99 203.56,263.99 214.4,263.99 225.25,263.99 225.25,248.11 
	214.4,248.11 214.4,232.23 203.56,232.23 192.72,232.23 192.72,216.34 181.87,216.34 "/>
<rect x="19.21" y="359.29" class="st2" width="10.85" height="15.88"/>
<rect x="171.03" y="263.99" class="st3" width="10.85" height="15.88"/>
<rect x="95.12" y="184.57" class="st4" width="10.85" height="15.88"/>
<rect x="214.4" y="152.81" class="st3" width="10.85" height="15.88"/>
<rect x="181.87" y="105.16" class="st3" width="10.84" height="15.88"/>
<rect x="171.03" y="311.64" class="st3" width="10.85" height="15.88"/>
<rect x="160.18" y="279.87" class="st3" width="10.84" height="15.88"/>
<polygon class="st5" points="203.56,263.99 192.72,263.99 181.87,263.99 181.87,279.87 192.72,279.87 192.72,295.76 192.72,311.64 
	192.72,327.52 192.72,343.41 203.56,343.41 214.4,343.41 225.25,343.41 225.25,327.52 225.25,311.64 225.25,295.76 225.25,279.87 
	225.25,263.99 214.4,263.99 "/>
<rect x="149.34" y="121.04" class="st3" width="10.84" height="15.88"/>
<rect x="160.18" y="105.16" class="st3" width="10.84" height="15.88"/>
<polygon class="st5" points="203.56,73.39 192.72,73.39 192.72,89.27 192.72,105.16 192.72,121.04 181.87,121.04 181.87,136.92 
	171.03,136.92 171.03,152.81 171.03,168.69 160.18,168.69 160.18,184.57 160.18,200.46 171.03,200.46 181.87,200.46 192.72,200.46 
	192.72,184.57 203.56,184.57 214.4,184.57 214.4,168.69 214.4,152.81 225.25,152.81 225.25,136.92 225.25,121.04 225.25,105.16 
	225.25,89.27 225.25,73.39 214.4,73.39 "/>
<rect x="171.03" y="73.39" class="st3" width="10.85" height="15.88"/>
<path class="st6" d="M171.03,279.87v15.88h-10.84v-15.88H171.03v-15.88h-10.84h-10.84H138.5h-10.84h-10.85v-15.88h-10.84H95.12
	H84.28v15.88v15.88v15.88v15.88v15.88v15.88h10.84h10.85h10.84h10.85h10.84h10.85h10.84h10.84h10.85h10.84v-15.88v-15.88v-15.88
	v-15.88h-10.84H171.03z M95.12,263.99h10.85v15.88H95.12V263.99z M95.12,327.52v-15.88h10.85v15.88H95.12z M181.87,327.52h-10.85
	v-15.88h10.85V327.52z"/>
<path class="st6" d="M181.87,89.27h-10.85V73.39h-10.84h-10.84H138.5h-10.84h-10.85h-10.84H95.12H84.28v15.88v15.88v15.88v15.88
	v15.88v15.88h10.84v15.88h10.85v15.88h10.84h10.85h10.84v15.88v15.89h10.85v-15.89v-15.88h10.84v-15.88v-15.88h10.84v-15.88v-15.88
	h10.85v-15.88v-15.88h10.84V89.27V73.39h-10.84V89.27z M127.65,89.27v15.88h-10.85V89.27H127.65z M95.12,105.16h10.85v15.88H95.12
	V105.16z M95.12,136.92h10.85v15.88H95.12V136.92z M116.81,184.57v-15.88h10.85v15.88H116.81z M171.03,121.04h-10.84v15.88h-10.84
	v-15.88h10.84v-15.88h10.84V121.04z"/>
<rect x="95.12" y="311.64" class="st7" width="10.85" height="15.88"/>
<rect x="95.12" y="263.99" class="st7" width="10.85" height="15.88"/>
<polygon class="st7" points="62.59,263.99 62.59,279.87 62.59,295.76 62.59,311.64 62.59,327.52 62.59,343.41 73.43,343.41 
	73.43,327.52 73.43,311.64 73.43,295.76 73.43,279.87 73.43,263.99 73.43,248.11 62.59,248.11 "/>
<rect x="116.81" y="168.69" class="st7" width="10.85" height="15.88"/>
<rect x="95.12" y="136.92" class="st7" width="10.85" height="15.88"/>
<rect x="95.12" y="105.16" class="st7" width="10.85" height="15.88"/>
<rect x="116.81" y="89.27" class="st7" width="10.85" height="15.88"/>
<polygon class="st7" points="62.59,89.27 62.59,105.16 62.59,121.04 62.59,136.92 62.59,152.81 62.59,168.69 73.43,168.69 
	73.43,152.81 73.43,136.92 73.43,121.04 73.43,105.16 73.43,89.27 73.43,73.39 62.59,73.39 "/>
<polygon class="st2" points="40.9,359.29 30.06,359.29 30.06,375.17 19.21,375.17 19.21,391.06 30.06,391.06 40.9,391.06 
	51.75,391.06 62.59,391.06 62.59,375.17 62.59,359.29 51.75,359.29 "/>
<polygon class="st2" points="40.9,25.74 30.06,25.74 30.06,41.63 19.21,41.63 19.21,57.51 30.06,57.51 40.9,57.51 51.75,57.51 
	62.59,57.51 62.59,41.63 62.59,25.74 51.75,25.74 "/>
<rect x="19.21" y="25.74" class="st2" width="10.85" height="15.88"/>
<polygon class="st1" points="84.28,327.52 84.28,311.64 84.28,295.76 84.28,279.87 84.28,263.99 84.28,248.11 73.43,248.11 
	73.43,263.99 73.43,279.87 73.43,295.76 73.43,311.64 73.43,327.52 73.43,343.41 84.28,343.41 "/>
<rect x="84.28" y="168.69" class="st1" width="10.84" height="15.88"/>
<polygon class="st1" points="84.28,136.92 84.28,121.04 84.28,105.16 84.28,89.27 84.28,73.39 73.43,73.39 73.43,89.27 
	73.43,105.16 73.43,121.04 73.43,136.92 73.43,152.81 73.43,168.69 84.28,168.69 84.28,152.81 "/>
<polygon class="st97" points="19.21,359.29 8.37,359.29 8.37,373.63 8.37,375.17 8.37,391.06 19.21,391.06 19.21,375.17 "/>
<polygon class="st97" points="225.25,279.87 225.25,295.76 225.25,311.64 225.25,327.52 225.25,343.41 214.4,343.41 203.56,343.41 
	192.72,343.41 181.87,343.41 171.03,343.41 160.18,343.41 149.34,343.41 138.5,343.41 127.65,343.41 116.81,343.41 105.97,343.41 
	95.12,343.41 84.28,343.41 73.43,343.41 62.59,343.41 62.59,327.52 62.59,311.64 62.59,295.76 62.59,279.87 62.59,263.99 
	62.59,248.11 51.75,248.11 51.75,263.99 51.75,279.87 51.75,295.76 51.75,311.64 51.75,327.52 51.75,343.41 40.9,343.41 
	30.06,343.41 19.21,343.41 19.21,359.29 30.06,359.29 40.9,359.29 51.75,359.29 62.59,359.29 62.59,375.17 62.59,391.06 
	51.75,391.06 40.9,391.06 30.06,391.06 19.21,391.06 19.21,406.94 30.06,406.94 40.9,406.94 51.75,406.94 62.59,406.94 
	73.43,406.94 84.28,406.94 95.12,406.94 105.97,406.94 116.81,406.94 127.65,406.94 138.5,406.94 149.34,406.94 160.18,406.94 
	171.03,406.94 181.87,406.94 192.72,406.94 203.56,406.94 214.4,406.94 225.25,406.94 236.09,406.94 246.94,406.94 257.78,406.94 
	268.62,406.94 268.62,391.06 279.47,391.06 279.47,375.17 279.47,364.55 279.47,359.29 268.62,359.29 268.62,343.41 257.78,343.41 
	246.94,343.41 236.09,343.41 236.09,327.52 236.09,311.64 236.09,295.76 236.09,279.87 236.09,263.99 236.09,248.11 225.25,248.11 
	225.25,263.99 "/>
<rect x="214.4" y="232.23" class="st97" width="10.85" height="15.88"/>
<rect x="62.59" y="232.23" class="st97" width="10.84" height="15.88"/>
<polygon class="st97" points="203.56,232.23 214.4,232.23 214.4,216.34 203.56,216.34 192.72,216.34 192.72,232.23 "/>
<polygon class="st97" points="95.12,232.23 95.12,216.34 84.28,216.34 73.43,216.34 73.43,232.23 84.28,232.23 "/>
<rect x="181.87" y="200.46" class="st97" width="10.84" height="15.88"/>
<rect x="95.12" y="200.46" class="st97" width="10.85" height="15.88"/>
<polygon class="st97" points="192.72,184.57 192.72,200.46 203.56,200.46 214.4,200.46 214.4,184.57 203.56,184.57 "/>
<rect x="84.28" y="184.57" class="st97" width="10.84" height="15.88"/>
<rect x="214.4" y="168.69" class="st97" width="10.85" height="15.88"/>
<polygon class="st97" points="73.43,168.69 62.59,168.69 62.59,184.57 73.43,184.57 84.28,184.57 84.28,168.69 "/>
<polygon class="st97" points="62.59,136.92 62.59,121.04 62.59,105.16 62.59,89.27 62.59,73.39 73.43,73.39 84.28,73.39 
	95.12,73.39 105.97,73.39 116.81,73.39 127.65,73.39 138.5,73.39 149.34,73.39 160.18,73.39 171.03,73.39 181.87,73.39 
	192.72,73.39 203.56,73.39 214.4,73.39 225.25,73.39 225.25,89.27 225.25,105.16 225.25,121.04 225.25,136.92 225.25,152.81 
	225.25,168.69 236.09,168.69 236.09,152.81 236.09,136.92 236.09,121.04 236.09,105.16 236.09,89.27 236.09,73.39 246.94,73.39 
	257.78,73.39 268.62,73.39 268.62,59.92 268.62,57.51 279.47,57.51 279.47,41.63 279.47,25.74 268.62,25.74 268.62,9.86 
	257.78,9.86 246.94,9.86 236.09,9.86 225.25,9.86 214.4,9.86 203.56,9.86 192.72,9.86 181.87,9.86 171.03,9.86 160.18,9.86 
	149.34,9.86 138.5,9.86 127.65,9.86 116.81,9.86 105.97,9.86 95.12,9.86 84.28,9.86 73.43,9.86 62.59,9.86 51.75,9.86 40.9,9.86 
	30.06,9.86 19.21,9.86 19.21,25.74 30.06,25.74 40.9,25.74 51.75,25.74 62.59,25.74 62.59,41.63 62.59,57.51 51.75,57.51 
	40.9,57.51 30.06,57.51 19.21,57.51 19.21,73.39 30.06,73.39 40.9,73.39 51.75,73.39 51.75,89.27 51.75,105.16 51.75,121.04 
	51.75,136.92 51.75,152.81 51.75,168.69 62.59,168.69 62.59,152.81 "/>
<polygon class="st97" points="19.21,25.74 8.37,25.74 8.37,41.63 8.37,57.51 10.85,57.51 19.21,57.51 19.21,41.63 "/>
</svg>
