<?xml version="1.0" encoding="iso-8859-1"?>
<!-- Generator: Adobe Illustrator 27.0.0, SVG Export Plug-In . SVG Version: 6.00 Build 0)  -->
<svg version="1.1" id="Capa_1" xmlns="http://www.w3.org/2000/svg" xmlns:xlink="http://www.w3.org/1999/xlink" x="0px" y="0px"
	 viewBox="0 0 413.27 397.08" style="enable-background:new 0 0 413.27 397.08;" xml:space="preserve">
<style type="text/css">
	.st0{fill:#88CFEB;}
	.st1{fill:#FFFFFF;}
	.st2{fill:#6E3470;}
	.st3{fill:#3A8E04;}
	.st4{fill:#FAFAFA;}
	.st5{fill:#52AF22;}
	.st6{fill:#60D52C;}
	.st7{fill:#8CF94B;}
	.st8{fill:#AF1716;}
	.st9{fill:#F3D5D5;}
	.st10{fill:#941818;}
	.st11{fill:#AD1716;}
	.st12{fill:#C62F30;}
	.st13{fill:#731917;}
	.st14{fill:#B71716;}
	.st15{fill:#BF1718;}
	.st16{fill:#BA1717;}
	.st17{fill:#C93A3B;}
	.st18{fill:#7F1817;}
	.st19{fill:#F8E8E8;}
	.st20{fill:#BF1717;}
	.st21{fill:#C01718;}
	.st22{fill:#68B12D;}
	.st23{fill:#62A52C;}
	.st24{fill:#786F6C;}
	.st25{fill:#776E6B;}
	.st26{fill:#807875;}
	.st27{fill:#FAD112;}
	.st28{fill:#F7CB00;}
	.st29{fill:#F7C207;}
	.st30{fill:#F6BB0B;}
	.st31{fill:#F9CA01;}
	.st32{fill:#F9CB01;}
	.st33{fill:#C1C102;}
	.st34{fill:#F6FC75;}
	.st35{fill:#FACE00;}
	.st36{fill:#DBEC44;}
	.st37{fill:#D0D832;}
	.st38{fill:#599628;}
	.st39{fill:#6AB230;}
	.st40{fill:#67AF2D;}
	.st41{fill:#A1CE7C;}
	.st42{fill:#FEFEFE;}
	.st43{fill:#5A9829;}
	.st44{fill:#5D9E2A;}
	.st45{fill:#F4F4F4;}
	.st46{fill:#E2E2E2;}
	.st47{fill:#E5E5E5;}
	.st48{fill:#FCFCFC;}
	.st49{fill:#797978;}
	.st50{fill:#7E7E7D;}
	.st51{fill:#BFBFBE;}
	.st52{fill:#9B9B9A;}
	.st53{fill:#AFA4A1;}
	.st54{fill:#F0B60C;}
	.st55{fill:#F4B513;}
	.st56{fill:#985F1B;}
	.st57{fill:#B1A5A2;}
	.st58{fill:#AB9F9C;}
	.st59{fill:#D47F18;}
	.st60{fill:#FFDE8D;}
	.st61{fill:#F3AD15;}
	.st62{fill:#B2A6A3;}
	.st63{fill:#EFB60C;}
	.st64{fill:#F6BB0C;}
	.st65{fill:#CCC602;}
	.st66{fill:#ED8D1C;}
	.st67{fill:#DD9B16;}
	.st68{fill:#F2AE11;}
	.st69{fill:#F1AD11;}
	.st70{fill:#DD9B17;}
	.st71{fill:#F9B411;}
	.st72{fill:#F8B310;}
	.st73{fill:#EBA713;}
	.st74{fill:#EDAA12;}
	.st75{fill:#F4AF11;}
	.st76{fill:#EBA813;}
	.st77{fill:#F9B921;}
	.st78{fill:#6A9049;}
	.st79{fill:#A5E76C;}
	.st80{fill:#A6E86D;}
	.st81{fill:#96D163;}
	.st82{fill:#69B22E;}
	.st83{fill:#65AB2C;}
	.st84{fill:#D13E3B;}
	.st85{fill:#A71716;}
	.st86{fill:#CC3D3A;}
	.st87{fill:#781817;}
	.st88{fill:#8F1816;}
	.st89{fill:#9D1716;}
	.st90{fill:#E95766;}
	.st91{fill:#F45B6A;}
	.st92{fill:#AA1716;}
	.st93{fill:#AE1716;}
	.st94{fill:#BA2422;}
	.st95{fill:#BE3A37;}
	.st96{fill:#F9B410;}
	.st97{fill:#7F567F;}
</style>
<rect x="310.81" y="360.52" class="st33" width="16.08" height="15.38"/>
<rect x="262.58" y="329.78" class="st33" width="16.08" height="15.37"/>
<rect x="133.97" y="222.17" class="st34" width="16.08" height="15.37"/>
<rect x="85.74" y="191.42" class="st34" width="16.08" height="15.37"/>
<rect x="85.74" y="360.52" class="st36" width="16.08" height="15.38"/>
<polygon class="st36" points="133.97,314.4 133.97,299.03 150.04,299.03 150.04,283.66 150.04,268.29 150.04,252.91 150.04,237.54 
	133.97,237.54 133.97,252.91 133.97,268.29 117.89,268.29 117.89,283.66 117.89,299.03 117.89,314.4 101.81,314.4 101.81,329.78 
	101.81,345.15 101.81,360.52 117.89,360.52 133.97,360.52 133.97,345.15 150.04,345.15 150.04,329.78 133.97,329.78 "/>
<rect x="117.89" y="222.17" class="st36" width="16.08" height="15.37"/>
<rect x="101.81" y="206.79" class="st36" width="16.08" height="15.38"/>
<rect x="69.66" y="191.42" class="st36" width="16.08" height="15.37"/>
<polygon class="st36" points="182.2,99.18 182.2,114.55 182.2,129.92 166.12,129.92 166.12,145.3 166.12,160.67 150.04,160.67 
	133.97,160.67 117.89,160.67 101.81,160.67 85.74,160.67 69.66,160.67 53.58,160.67 37.51,160.67 37.51,176.05 53.58,176.05 
	53.58,191.42 69.66,191.42 69.66,176.05 85.74,176.05 101.81,176.05 117.89,176.05 133.97,176.05 150.04,176.05 166.12,176.05 
	182.2,176.05 182.2,191.42 166.12,191.42 150.04,191.42 133.97,191.42 117.89,191.42 117.89,206.79 133.97,206.79 150.04,206.79 
	150.04,222.17 166.12,222.17 166.12,237.54 166.12,252.91 166.12,268.29 166.12,283.66 166.12,299.03 150.04,299.03 150.04,314.4 
	150.04,329.78 166.12,329.78 166.12,314.4 182.2,314.4 182.2,299.03 198.27,299.03 198.27,283.66 198.27,268.29 198.27,252.91 
	198.27,237.54 198.27,222.17 198.27,206.79 198.27,191.42 198.27,176.05 198.27,160.67 198.27,145.3 198.27,129.92 198.27,114.55 
	198.27,99.18 198.27,83.8 182.2,83.8 "/>
<polygon class="st37" points="198.27,37.69 198.27,53.06 198.27,68.43 198.27,83.8 198.27,99.18 198.27,114.55 198.27,129.92 
	198.27,145.3 198.27,160.67 198.27,176.05 198.27,191.42 198.27,206.79 198.27,222.17 198.27,237.54 198.27,252.91 198.27,268.29 
	198.27,283.66 198.27,299.03 214.35,299.03 214.35,283.66 214.35,268.29 214.35,252.91 214.35,237.54 214.35,222.17 214.35,206.79 
	214.35,191.42 214.35,176.05 214.35,160.67 214.35,145.3 214.35,129.92 214.35,114.55 214.35,99.18 214.35,83.8 214.35,68.43 
	214.35,53.06 214.35,37.69 214.35,22.31 198.27,22.31 "/>
<polygon class="st65" points="342.96,160.67 326.88,160.67 310.81,160.67 294.73,160.67 278.65,160.67 262.58,160.67 246.5,160.67 
	246.5,145.3 246.5,129.92 230.42,129.92 230.42,114.55 230.42,99.18 230.42,83.8 214.35,83.8 214.35,99.18 214.35,114.55 
	214.35,129.92 214.35,145.3 214.35,160.67 214.35,176.05 214.35,191.42 214.35,206.79 214.35,222.17 214.35,237.54 214.35,252.91 
	214.35,268.29 214.35,283.66 214.35,299.03 230.42,299.03 230.42,314.4 246.5,314.4 246.5,329.78 262.58,329.78 278.65,329.78 
	278.65,345.15 278.65,360.52 294.73,360.52 310.81,360.52 310.81,345.15 310.81,329.78 310.81,314.4 294.73,314.4 294.73,299.03 
	294.73,283.66 294.73,268.29 278.65,268.29 278.65,252.91 278.65,237.54 294.73,237.54 294.73,222.17 310.81,222.17 326.88,222.17 
	326.88,206.79 342.96,206.79 342.96,191.42 359.04,191.42 359.04,176.05 375.11,176.05 375.11,160.67 359.04,160.67 "/>
<polygon class="st1" points="133.97,314.4 133.97,329.78 150.04,329.78 150.04,314.4 150.04,299.03 133.97,299.03 "/>
<polygon class="st1" points="150.04,252.91 150.04,268.29 150.04,283.66 150.04,299.03 166.12,299.03 166.12,283.66 166.12,268.29 
	166.12,252.91 166.12,237.54 166.12,222.17 150.04,222.17 150.04,237.54 "/>
<polygon class="st1" points="133.97,222.17 150.04,222.17 150.04,206.79 133.97,206.79 117.89,206.79 117.89,222.17 "/>
<polygon class="st1" points="150.04,176.05 133.97,176.05 117.89,176.05 101.81,176.05 85.74,176.05 69.66,176.05 69.66,191.42 
	85.74,191.42 101.81,191.42 101.81,206.79 117.89,206.79 117.89,191.42 133.97,191.42 150.04,191.42 166.12,191.42 182.2,191.42 
	182.2,176.05 166.12,176.05 "/>
<polygon points="310.81,375.9 310.81,390.52 310.81,391.27 326.88,391.27 342.96,391.27 342.96,379.94 342.96,375.9 342.96,360.52 
	326.88,360.52 326.88,375.9 "/>
<polygon points="85.74,360.52 69.66,360.52 69.66,367.7 69.66,375.9 69.66,391.27 85.74,391.27 101.81,391.27 101.81,387.15 
	101.81,375.9 85.74,375.9 "/>
<polygon points="294.73,360.52 278.65,360.52 278.65,375.9 294.73,375.9 310.81,375.9 310.81,360.52 "/>
<polygon points="101.81,360.52 101.81,375.9 117.89,375.9 133.97,375.9 133.97,360.52 117.89,360.52 "/>
<rect x="262.58" y="345.15" width="16.08" height="15.37"/>
<rect x="133.97" y="345.15" width="16.08" height="15.37"/>
<polygon points="101.81,345.15 101.81,329.78 101.81,314.4 85.74,314.4 85.74,329.78 85.74,345.15 85.74,360.52 101.81,360.52 "/>
<polygon points="310.81,345.15 310.81,360.52 326.88,360.52 326.88,345.15 326.88,329.78 326.88,314.4 310.81,314.4 310.81,329.78 
	"/>
<rect x="246.5" y="329.78" width="16.08" height="15.37"/>
<rect x="150.04" y="329.78" width="16.08" height="15.37"/>
<rect x="230.42" y="314.4" width="16.08" height="15.38"/>
<rect x="166.12" y="314.4" width="16.08" height="15.38"/>
<polygon points="214.35,299.03 198.27,299.03 182.2,299.03 182.2,314.4 198.27,314.4 214.35,314.4 230.42,314.4 230.42,299.03 "/>
<polygon points="117.89,299.03 117.89,283.66 117.89,268.29 101.81,268.29 101.81,283.66 101.81,299.03 101.81,314.4 117.89,314.4 
	"/>
<polygon points="294.73,299.03 294.73,314.4 310.81,314.4 310.81,299.03 310.81,283.66 310.81,268.29 294.73,268.29 294.73,283.66 
	"/>
<polygon points="133.97,252.91 133.97,237.54 117.89,237.54 117.89,252.91 117.89,268.29 133.97,268.29 "/>
<polygon points="278.65,252.91 278.65,268.29 294.73,268.29 294.73,252.91 294.73,237.54 278.65,237.54 "/>
<polygon points="294.73,222.17 294.73,237.54 310.81,237.54 326.88,237.54 326.88,222.17 310.81,222.17 "/>
<rect x="101.81" y="222.17" width="16.08" height="15.37"/>
<rect x="326.88" y="206.79" width="16.08" height="15.38"/>
<polygon points="85.74,206.79 69.66,206.79 69.66,222.17 85.74,222.17 101.81,222.17 101.81,206.79 "/>
<rect x="342.96" y="191.42" width="16.08" height="15.37"/>
<rect x="53.58" y="191.42" width="16.08" height="15.37"/>
<rect x="359.04" y="176.05" width="16.08" height="15.37"/>
<polygon points="37.51,176.05 37.51,191.42 45.55,191.42 53.58,191.42 53.58,176.05 "/>
<polygon points="383.15,145.3 375.11,145.3 359.04,145.3 342.96,145.3 326.88,145.3 310.81,145.3 294.73,145.3 278.65,145.3 
	262.58,145.3 262.58,129.92 246.5,129.92 246.5,145.3 246.5,160.67 262.58,160.67 278.65,160.67 294.73,160.67 310.81,160.67 
	326.88,160.67 342.96,160.67 359.04,160.67 375.11,160.67 375.11,176.05 383.15,176.05 391.19,176.05 391.19,160.67 407.27,160.67 
	407.27,145.3 391.19,145.3 "/>
<polygon points="53.58,160.67 69.66,160.67 85.74,160.67 101.81,160.67 117.89,160.67 133.97,160.67 150.04,160.67 166.12,160.67 
	166.12,145.3 166.12,129.92 150.04,129.92 150.04,145.3 133.97,145.3 117.89,145.3 101.81,145.3 85.74,145.3 69.66,145.3 
	53.58,145.3 45.55,145.3 37.51,145.3 21.43,145.3 5.35,145.3 5.35,160.67 21.43,160.67 21.43,176.05 37.51,176.05 37.51,160.67 "/>
<polygon points="182.2,114.55 182.2,99.18 182.2,83.8 166.12,83.8 166.12,99.18 166.12,114.55 166.12,129.92 182.2,129.92 "/>
<polygon points="230.42,114.55 230.42,129.92 246.5,129.92 246.5,114.55 246.5,99.18 246.5,83.8 230.42,83.8 230.42,99.18 "/>
<polygon points="198.27,68.43 198.27,53.06 198.27,37.69 198.27,22.31 182.2,22.31 182.2,37.69 182.2,53.06 182.2,53.36 
	182.2,68.43 182.2,83.8 198.27,83.8 "/>
<polygon points="214.35,53.06 214.35,68.43 214.35,83.8 230.42,83.8 230.42,68.43 230.42,53.36 230.42,53.06 230.42,37.69 
	230.42,22.31 214.35,22.31 214.35,37.69 "/>
<rect x="198.27" y="6.94" width="16.07" height="15.37"/>
</svg>
